<?xml version="1.0" encoding="UTF-8" standalone="no"?>
<!-- Uploaded to: SVG Repo, www.svgrepo.com, Generator: SVG Repo Mixer Tools -->

<svg
   fill="#000000"
   version="1.1"
   width="800px"
   height="800px"
   viewBox="0 0 512 512"
   xml:space="preserve"
   id="svg1"
   sodipodi:docname="facebook.svg"
   inkscape:version="1.3.2 (091e20e, 2023-11-25, custom)"
   xmlns:inkscape="http://www.inkscape.org/namespaces/inkscape"
   xmlns:sodipodi="http://sodipodi.sourceforge.net/DTD/sodipodi-0.dtd"
   xmlns="http://www.w3.org/2000/svg"
   xmlns:svg="http://www.w3.org/2000/svg"><defs
   id="defs1" /><sodipodi:namedview
   id="namedview1"
   pagecolor="#ffffff"
   bordercolor="#000000"
   borderopacity="0.25"
   inkscape:showpageshadow="2"
   inkscape:pageopacity="0.0"
   inkscape:pagecheckerboard="0"
   inkscape:deskcolor="#d1d1d1"
   inkscape:zoom="1.02625"
   inkscape:cx="400"
   inkscape:cy="400"
   inkscape:window-width="1920"
   inkscape:window-height="1017"
   inkscape:window-x="-8"
   inkscape:window-y="-8"
   inkscape:window-maximized="1"
   inkscape:current-layer="svg1" />

<g
   id="7935ec95c421cee6d86eb22ecd11b7e3"
   style="fill:#4460a0;fill-opacity:1">

<path
   style="display:inline;fill:#4460a0;fill-opacity:1"
   d="M283.122,122.174c0,5.24,0,22.319,0,46.583h83.424l-9.045,74.367h-74.379   c0,114.688,0,268.375,0,268.375h-98.726c0,0,0-151.653,0-268.375h-51.443v-74.367h51.443c0-29.492,0-50.463,0-56.302   c0-27.82-2.096-41.02,9.725-62.578C205.948,28.32,239.308-0.174,297.007,0.512c57.713,0.711,82.04,6.263,82.04,6.263   l-12.501,79.257c0,0-36.853-9.731-54.942-6.263C293.539,83.238,283.122,94.366,283.122,122.174z"
   id="path1">

</path>

</g>

</svg>
