<?xml version="1.0" encoding="UTF-8" standalone="no"?>
<!-- Created with Inkscape (http://www.inkscape.org/) -->

<svg
   width="65.119148mm"
   height="9.5980282mm"
   viewBox="0 0 65.119148 9.5980282"
   version="1.1"
   id="svg1"
   inkscape:version="1.3.2 (091e20e, 2023-11-25, custom)"
   sodipodi:docname="logo-dark.svg"
   xmlns:inkscape="http://www.inkscape.org/namespaces/inkscape"
   xmlns:sodipodi="http://sodipodi.sourceforge.net/DTD/sodipodi-0.dtd"
   xmlns:xlink="http://www.w3.org/1999/xlink"
   xmlns="http://www.w3.org/2000/svg"
   xmlns:svg="http://www.w3.org/2000/svg">
  <sodipodi:namedview
     id="namedview1"
     pagecolor="#ffffff"
     bordercolor="#000000"
     borderopacity="0.25"
     inkscape:showpageshadow="2"
     inkscape:pageopacity="0.0"
     inkscape:pagecheckerboard="0"
     inkscape:deskcolor="#d1d1d1"
     inkscape:document-units="mm"
     inkscape:zoom="2.0686841"
     inkscape:cx="72.751562"
     inkscape:cy="98.855113"
     inkscape:window-width="1920"
     inkscape:window-height="1017"
     inkscape:window-x="-8"
     inkscape:window-y="-8"
     inkscape:window-maximized="1"
     inkscape:current-layer="layer1" />
  <defs
     id="defs1">
    <linearGradient
       id="linearGradient7"
       inkscape:collect="always">
      <stop
         style="stop-color:#ff9012;stop-opacity:1;"
         offset="0"
         id="stop6" />
      <stop
         style="stop-color:#ffd6a8;stop-opacity:1;"
         offset="1"
         id="stop7" />
    </linearGradient>
    <linearGradient
       inkscape:collect="always"
       xlink:href="#linearGradient7"
       id="linearGradient3-4"
       x1="72.991577"
       y1="115.83042"
       x2="138.11072"
       y2="115.83042"
       gradientUnits="userSpaceOnUse"
       gradientTransform="translate(29.956886,-0.03409504)" />
  </defs>
  <g
     inkscape:label="Camada 1"
     inkscape:groupmode="layer"
     id="layer1"
     transform="translate(-72.991579,-111.03141)">
    <path
       d="m 73.04146,120.50028 q 0.158474,-1.56407 0.261827,-3.51399 0.110243,-1.94992 0.124024,-3.49333 0.633897,0.0138 1.012857,0.0138 0.447862,0 0.950845,-0.0138 l -0.07579,1.17134 q 0.213596,-0.30317 0.37207,-0.48232 0.165365,-0.17914 0.413412,-0.3514 0.254936,-0.17225 0.537434,-0.2756 0.289388,-0.10336 0.640787,-0.16537 0.35829,-0.062 0.74414,-0.062 0.613227,0 1.171332,0.15847 0.564995,0.15159 0.909504,0.48921 0.34451,0.33762 0.454753,0.73725 0.110243,0.39963 0.110243,0.84749 0,0.18603 -0.02067,0.59256 l -0.144694,3.01101 q -0.02756,0.627 -0.03445,1.33669 -0.544324,-0.0138 -0.930175,-0.0138 -0.523654,0 -1.054198,0.0138 0.05512,-0.59944 0.137804,-2.08772 0.08268,-1.49517 0.08268,-1.97749 0,-0.54432 -0.172255,-0.87505 -0.172255,-0.33073 -0.537434,-0.50298 -0.35829,-0.17226 -0.778591,-0.17226 -0.413411,0 -0.771701,0.15848 -0.35829,0.15847 -0.620117,0.46164 -0.275607,0.31006 -0.427191,0.76481 -0.158475,0.48231 -0.234267,1.59163 -0.0689,0.9853 -0.110243,2.63894 -0.530544,-0.0138 -0.957735,-0.0138 -0.434082,0 -1.054199,0.0138 z m 15.337553,-1.56407 q -0.08957,0.40652 -0.254936,1.46072 -0.744141,0.15847 -1.254014,0.2136 -0.509874,0.0551 -1.026638,0.0551 -0.902614,0 -1.619194,-0.17915 -0.709689,-0.17914 -1.247123,-0.65457 -0.537435,-0.48231 -0.792371,-1.17822 -0.254937,-0.69591 -0.254937,-1.46072 0,-0.84749 0.296278,-1.63986 0.296278,-0.79926 0.826822,-1.30225 0.537434,-0.50987 1.219563,-0.71658 0.682128,-0.21359 1.426268,-0.21359 0.702799,0 1.336696,0.17914 0.633897,0.17226 1.061089,0.57189 0.434081,0.39963 0.661458,0.96463 0.234266,0.5581 0.234266,1.24712 0,0.32384 -0.0689,0.66835 l -5.050506,0.007 q -0.01378,0.25493 -0.01378,0.40652 0,0.46164 0.158474,0.84749 0.158474,0.38585 0.461642,0.65457 0.303169,0.26872 0.72347,0.39963 0.420301,0.12402 0.826822,0.12402 0.475423,0 1.026638,-0.10335 0.558105,-0.10335 1.322915,-0.3514 z m -4.45106,-2.78363 3.224607,0.007 q 0,-0.33073 -0.02067,-0.48921 -0.02067,-0.15847 -0.09646,-0.35829 -0.0689,-0.2067 -0.192925,-0.35829 -0.124023,-0.15847 -0.289388,-0.26182 -0.165364,-0.10336 -0.38585,-0.15848 -0.213596,-0.0551 -0.461643,-0.0551 -0.289387,0 -0.564995,0.0896 -0.268717,0.0896 -0.496093,0.26183 -0.227376,0.17225 -0.37207,0.38585 -0.137804,0.2136 -0.206706,0.41341 -0.0689,0.19293 -0.137804,0.52366 z m 5.257212,4.3477 q 1.357367,-1.79145 2.756074,-3.72759 l -0.578775,-0.93017 q -0.282498,-0.45476 -0.75103,-1.16444 l -0.778591,-1.18512 q 0.75792,0.0138 1.212672,0.0138 0.599446,0 1.067979,-0.0138 0.310058,0.61323 0.709689,1.34359 l 0.502984,0.95085 1.515841,-2.29444 q 0.489203,0.0138 1.047308,0.0138 0.523654,0 1.081759,-0.0138 l -1.074869,1.41249 q -0.36518,0.4892 -1.364257,1.84657 l 1.005967,1.63298 1.357367,2.11528 q -0.592556,-0.0138 -1.09554,-0.0138 -0.606336,0 -1.178221,0.0138 -0.420302,-0.85438 -0.840603,-1.57096 -0.413411,-0.71658 -0.613227,-1.11621 -0.282497,0.44786 -0.75792,1.13688 -0.468533,0.68902 -1.012857,1.55029 -0.578776,-0.0138 -1.047309,-0.0138 -0.523654,0 -1.164441,0.0138 z m 12.994895,-1.44005 q -0.0827,0.37896 -0.26183,1.4056 -0.57878,0.13091 -0.90951,0.16537 -0.33073,0.0344 -0.62011,0.0344 -0.509877,0 -0.916398,-0.0965 -0.399631,-0.0965 -0.661458,-0.33761 -0.261827,-0.24805 -0.358289,-0.57189 -0.08957,-0.33073 -0.08957,-0.68213 0,-0.0896 0.0069,-0.24116 0.0069,-0.15158 0.05512,-0.9784 l 0.158474,-2.86632 h -0.992186 q 0.03445,-0.41341 0.06201,-1.3298 h 1.040418 q 0.04134,-0.39964 0.08268,-1.35737 l 0.813042,-0.15848 q 0.254937,-0.0482 0.985295,-0.22737 -0.0482,0.93017 -0.0551,1.74322 h 1.75011 q -0.0482,0.93017 -0.0482,1.3298 h -1.757 q -0.14469,2.80431 -0.14469,3.24528 0,0.42719 0.0896,0.66146 0.0965,0.23426 0.30317,0.33762 0.2067,0.10335 0.44097,0.10335 0.17225,0 0.35829,-0.0276 0.19292,-0.0276 0.66835,-0.15159 z"
       id="text1-5"
       style="font-size:14.1111px;line-height:17.7778px;font-family:'Eras Demi ITC';-inkscape-font-specification:'Eras Demi ITC';letter-spacing:0px;stroke-width:0.23;stroke-linecap:round;fill:#ffffff"
       aria-label="next" />
    <path
       d="m 105.12578,120.43002 0.15158,-2.01193 0.15159,-2.99723 0.0965,-2.949 h -0.48231 l -0.44786,0.007 -0.4272,0.007 -1.59163,0.0482 q 0.0551,-0.99219 0.062,-1.50895 1.98438,0.0138 4.15478,0.0138 l 2.47358,-0.007 1.32292,-0.007 q -0.0689,0.97152 -0.0689,1.49517 -1.24712,-0.062 -2.39089,-0.062 h -0.53054 l -0.0827,1.2609 -0.19981,4.85069 -0.0138,0.81304 q -0.007,0.50299 -0.007,1.04731 l -1.04731,-0.0138 q -0.17225,0 -1.1231,0.0138 z m 9.77028,-7.17268 q 0.79237,0 1.51584,0.24116 0.73036,0.23426 1.23335,0.7028 0.50987,0.46164 0.76481,1.13688 0.25493,0.66834 0.25493,1.41248 0,0.78549 -0.26871,1.51584 -0.26872,0.73036 -0.77859,1.2678 -0.50988,0.53054 -1.27469,0.79926 -0.75792,0.26183 -1.61919,0.26183 -0.79926,0 -1.52273,-0.23427 -0.71658,-0.24116 -1.22646,-0.71658 -0.50987,-0.47542 -0.77859,-1.15755 -0.26182,-0.68213 -0.26182,-1.42627 0,-0.75792 0.24115,-1.44694 0.24116,-0.68902 0.75103,-1.22645 0.51677,-0.53743 1.31603,-0.83371 0.79926,-0.29628 1.65364,-0.29628 z m 0,1.41938 q -0.59944,0 -1.07487,0.29628 -0.46853,0.28938 -0.7028,0.86816 -0.22737,0.57878 -0.22737,1.2609 0,0.59945 0.18603,1.06798 0.19293,0.46853 0.62012,0.75792 0.43408,0.28939 1.02664,0.28939 0.60633,0 1.06109,-0.29628 0.46164,-0.30317 0.68901,-0.88194 0.23427,-0.58567 0.23427,-1.28847 0,-0.57188 -0.17914,-1.04041 -0.17915,-0.46854 -0.60634,-0.75103 -0.4203,-0.2825 -1.02664,-0.2825 z m 5.07807,5.7533 0.18603,-2.39778 0.13781,-2.99723 0.0896,-2.98345 q 0.007,-0.19293 0.007,-1.02664 0.76481,0.0138 1.44005,0.0138 0.50298,0 1.32292,-0.0207 0.82682,-0.0207 1.42626,-0.0207 0.81305,0 1.50206,0.0965 0.69591,0.0965 1.21268,0.36518 0.51676,0.26183 0.89572,0.66146 0.37896,0.39963 0.62012,0.88883 0.24115,0.48232 0.36518,1.08176 0.13091,0.59256 0.13091,1.21268 0,1.18511 -0.41341,2.25998 -0.40652,1.06797 -1.21956,1.77077 -0.81304,0.69591 -1.80523,0.89573 -0.9853,0.19981 -2.23931,0.19981 l -2.34266,-0.0138 q -0.22049,0 -1.31603,0.0138 z m 2.11529,-1.46761 q 0.56499,0.0276 1.11621,0.0276 0.627,0 1.15755,-0.062 0.53743,-0.062 0.92328,-0.19292 0.38585,-0.13781 0.7717,-0.47543 0.39274,-0.33761 0.64079,-0.77859 0.24805,-0.44786 0.37896,-0.99218 0.13091,-0.54433 0.13091,-1.10932 0,-1.03353 -0.35139,-1.69499 -0.3514,-0.66835 -0.93018,-0.95773 -0.57189,-0.29628 -1.77078,-0.29628 -0.77859,0 -1.78456,0.0276 z m 12.17495,-5.70507 q 0.79237,0 1.51584,0.24116 0.73036,0.23426 1.23335,0.7028 0.50987,0.46164 0.76481,1.13688 0.25493,0.66834 0.25493,1.41248 0,0.78549 -0.26871,1.51584 -0.26872,0.73036 -0.77859,1.2678 -0.50988,0.53054 -1.27469,0.79926 -0.75792,0.26183 -1.61919,0.26183 -0.79926,0 -1.52273,-0.23427 -0.71658,-0.24116 -1.22646,-0.71658 -0.50987,-0.47542 -0.77859,-1.15755 -0.26182,-0.68213 -0.26182,-1.42627 0,-0.75792 0.24115,-1.44694 0.24116,-0.68902 0.75103,-1.22645 0.51677,-0.53743 1.31603,-0.83371 0.79926,-0.29628 1.65364,-0.29628 z m 0,1.41938 q -0.59944,0 -1.07487,0.29628 -0.46853,0.28938 -0.70279,0.86816 -0.22738,0.57878 -0.22738,1.2609 0,0.59945 0.18603,1.06798 0.19293,0.46853 0.62012,0.75792 0.43408,0.28939 1.02664,0.28939 0.60633,0 1.06109,-0.29628 0.46164,-0.30317 0.68902,-0.88194 0.23426,-0.58567 0.23426,-1.28847 0,-0.57188 -0.17914,-1.04041 -0.17915,-0.46854 -0.60634,-0.75103 -0.4203,-0.2825 -1.02664,-0.2825 z"
       id="text1-9"
       style="font-size:14.1111px;line-height:17.7778px;font-family:'Eras Demi ITC';-inkscape-font-specification:'Eras Demi ITC';letter-spacing:0px;fill:url(#linearGradient3-4);stroke-width:0.23;stroke-linecap:round"
       aria-label="ToDo" />
  </g>
</svg>
